<svg width="100%" height="100%" viewBox="0 0 134 52" fill="none" xmlns="http://www.w3.org/2000/svg"><path d="M20.9976 25.9312H24.6665L20.0044 45.9321H15.8667L12.5005 30.5933L9.18993 45.9321H4.99657L0.306152 25.9312H4.11377L7.31396 41.3804L10.4868 25.9312H14.5425L17.9624 41.4077L20.9976 25.9312ZM31.9507 46.2905C28.3364 46.2905 24.6401 43.8901 24.6401 38.5386C24.6401 33.186 28.3364 30.7583 31.9507 30.7583C35.5649 30.7583 39.2612 33.186 39.2612 38.5386C39.2612 43.8901 35.5649 46.2905 31.9507 46.2905ZM35.8686 38.5386C35.8686 35.1177 34.02 33.4351 31.9507 33.4351C29.8813 33.4351 28.0327 35.1177 28.0327 38.5386C28.0327 41.9595 29.8813 43.6147 31.9507 43.6147C34.02 43.6147 35.8686 41.9595 35.8686 38.5386ZM47.9849 34.3452C45.9155 34.3452 44.73 35.1724 44.73 38.1519V45.9321H41.4468V31.0894H44.6743V33.7378C45.4741 32.0825 46.9087 31.0894 48.7026 31.062C48.9507 31.062 49.3091 31.0894 49.5571 31.1177V34.4282C49.0054 34.3726 48.4819 34.3452 47.9849 34.3452ZM54.8667 37.0483L60.3559 31.0894H64.3013L58.6186 37.187L64.936 45.9321H61.1011L56.4389 39.5044L54.8667 41.187V45.9321H51.5835V25.9312H54.8667L54.8667 37.0483ZM69.6636 33.0757C70.5464 31.6138 72.0913 30.7583 74.0776 30.7583C77.6919 30.7583 80.4507 33.7661 80.4507 38.5112C80.4507 43.2837 77.6919 46.2905 74.0776 46.2905C72.0913 46.2905 70.5464 45.4351 69.6636 43.9731V50.7603H66.3813V31.0894H69.6636V33.0757ZM77.0298 38.5112C77.0298 35.3931 75.6509 33.4351 73.3608 33.4351C71.2085 33.4351 69.5259 35.0903 69.5259 38.5112C69.5259 41.9321 71.2085 43.6147 73.3608 43.6147C75.6509 43.6147 77.0298 41.6558 77.0298 38.5112ZM82.9448 45.9321V25.9312H86.228V45.9321H82.9448ZM98.6391 36.6626V36.3862C98.6391 33.8481 97.1772 33.0757 95.5493 33.0757C93.894 33.0757 92.6528 33.9585 92.5698 35.7524H89.3423C89.563 32.7173 92.0737 30.6479 95.6596 30.6479C99.2182 30.6479 102.005 32.2759 101.922 37.021C101.922 37.7661 101.866 39.5044 101.866 40.856C101.866 42.7319 102.032 44.6909 102.308 45.9321H99.3013C99.1909 45.2974 99.0806 44.939 99.0259 43.9185C98.0874 45.5181 96.3218 46.2905 94.1421 46.2905C90.9145 46.2905 88.6528 44.5522 88.6528 41.8491C88.6528 38.1519 93.2046 37.2144 98.6391 36.6626ZM92.1284 41.7661C92.1284 43.063 93.2046 43.8354 94.8598 43.8354C97.2876 43.8354 98.7221 42.5942 98.7221 40.0835V38.9526C94.0327 39.394 92.1284 40.0561 92.1284 41.7661ZM114.726 36.1655C114.449 34.5933 113.07 33.4897 111.276 33.4897C109.235 33.4897 107.387 35.0073 107.387 38.5112C107.387 42.0425 109.263 43.5591 111.194 43.5591C112.794 43.5591 114.422 42.8423 114.836 40.856H118.036C117.374 44.3315 114.311 46.2905 111.139 46.2905C106.835 46.2905 103.993 42.9526 103.993 38.5386C103.993 34.1245 106.862 30.7583 111.276 30.7583C114.505 30.7583 117.374 32.855 117.926 36.1655L114.726 36.1655ZM126.8 43.5591C128.51 43.5591 129.861 42.8696 130.44 41.4907H133.669C132.979 43.8628 130.772 46.2905 126.937 46.2905C122.165 46.2905 119.434 42.6489 119.434 38.4009C119.434 33.9311 122.495 30.7583 126.717 30.7583C131.269 30.7583 134.11 34.4555 133.834 39.4487H122.771C122.992 42.2075 124.923 43.5591 126.8 43.5591ZM130.496 37.0483C130.413 34.731 128.647 33.3247 126.717 33.3247C125.172 33.3247 123.048 34.2349 122.771 37.0483H130.496Z" fill="#0D213F"></path><path d="M47.3545 15.9324H35.2055C34.3531 15.9324 33.5916 15.4235 33.2654 14.636C32.9392 13.8485 33.1179 12.9501 33.7206 12.3475L42.1358 3.9324H36.1045C34.4476 3.9324 33.1045 2.58926 33.1045 0.932397H44.3085C45.1608 0.932397 45.9223 1.44114 46.2486 2.22864C46.5748 3.01614 46.3962 3.91438 45.7935 4.51731L37.3784 12.9324H44.3545C46.0113 12.9324 47.3545 14.2755 47.3545 15.9324ZM101.054 6.55739C101.054 3.33166 98.4301 0.707397 95.2044 0.707397C93.479 0.707397 91.9261 1.45872 90.8544 2.65088C89.7827 1.45872 88.2299 0.707397 86.5044 0.707397C83.2787 0.707397 80.6544 3.33166 80.6544 6.55739V15.9324C82.3113 15.9324 83.6544 14.5892 83.6544 12.9324V6.5574C83.6544 4.98592 84.9329 3.7074 86.5044 3.7074C88.0759 3.7074 89.3544 4.98591 89.3544 6.5574V12.9324C89.3544 14.5892 90.6976 15.9324 92.3544 15.9324V6.55739C92.3544 4.98591 93.6329 3.70739 95.2044 3.70739C96.7759 3.70739 98.0544 4.9859 98.0544 6.55739V12.9324C98.0544 14.5892 99.3976 15.9324 101.054 15.9324L101.054 6.55739ZM79.1544 8.43239C79.1544 12.6988 75.6959 16.1574 71.4295 16.1574C67.1631 16.1574 63.7045 12.6988 63.7045 8.43239C63.7045 4.16599 67.1631 0.707397 71.4294 0.707397C75.6958 0.707397 79.1544 4.16599 79.1544 8.43239ZM76.1544 8.43239C76.1544 5.82285 74.039 3.7074 71.4295 3.7074C68.8199 3.7074 66.7045 5.82285 66.7045 8.43239C66.7045 11.0419 68.8199 13.1574 71.4295 13.1574C74.039 13.1574 76.1544 11.0419 76.1544 8.43239ZM62.5045 8.43239C62.5045 12.6988 59.0459 16.1574 54.7795 16.1574C50.5131 16.1574 47.0545 12.6988 47.0545 8.43239C47.0545 4.16599 50.5131 0.707397 54.7795 0.707397C59.0459 0.707397 62.5045 4.16599 62.5045 8.43239ZM59.5045 8.43239C59.5045 5.82285 57.389 3.7074 54.7795 3.7074C52.1699 3.7074 50.0545 5.82285 50.0545 8.43239C50.0545 11.0419 52.1699 13.1574 54.7795 13.1574C57.389 13.1574 59.5045 11.0419 59.5045 8.43239Z" fill="#0B5CFF"></path></svg>